<svg width="30" height="30" viewBox="0 0 30 30" fill="none" xmlns="http://www.w3.org/2000/svg">
<path d="M14.0801 5.05771C12.2273 5.40149 10.6895 6.78052 10.1457 8.58146C9.93188 9.29246 9.87562 10.1636 9.99564 10.8942C10.3444 13.0037 11.9985 14.6757 14.1138 15.0547C14.5489 15.1328 15.449 15.1328 15.8841 15.0547C17.7594 14.7187 19.3046 13.3436 19.8522 11.5231C20.0248 10.9528 20.0735 10.5543 20.051 9.87845C20.0285 9.21823 19.9497 8.81586 19.7285 8.21424C19.1359 6.61254 17.6169 5.36633 15.8841 5.05381C15.464 4.97958 14.4926 4.97958 14.0801 5.05771ZM15.6291 7.66732C16.1466 7.81186 16.6755 8.17908 16.9755 8.60099C17.2981 9.05416 17.4481 9.51514 17.4518 10.0542C17.4518 10.4566 17.3918 10.7184 17.2006 11.1247C16.9755 11.6052 16.6042 11.9919 16.1241 12.2341C15.3478 12.6287 14.6501 12.6287 13.8738 12.2341C13.1874 11.8864 12.7073 11.234 12.5761 10.4644C12.486 9.94095 12.5461 9.52295 12.7936 8.98384C13.0111 8.51114 13.3899 8.12048 13.8738 7.87437C14.0688 7.7728 14.3501 7.66732 14.4926 7.63216C14.7964 7.56575 15.3215 7.58137 15.6291 7.66732Z" fill="#667080" fill-opacity="0.9"/>
<path d="M9.95301 15.0717C9.40542 15.2201 9.03036 15.7163 9.00411 16.3296C8.99285 16.5835 9.00036 16.65 9.08287 16.8179C9.25165 17.1578 9.72797 17.5758 10.5006 18.0524C11.1945 18.4861 12.1321 18.8103 13.1973 18.9822C13.4748 19.0291 13.7636 19.0799 13.8386 19.0916L13.9737 19.1189L12.0458 21.0527C9.878 23.2208 9.91925 23.174 9.9155 23.6701C9.9155 24.0373 10.0355 24.3186 10.3056 24.5803C10.7969 25.0569 11.4908 25.139 11.9371 24.7679C12.0121 24.7053 12.7285 23.9943 13.5348 23.1818L14.9976 21.709L15.4214 22.1231C15.6502 22.3497 16.3478 23.045 16.9666 23.6701C17.6943 24.4045 18.1518 24.8343 18.2606 24.8929C18.5119 25.0218 19.067 25.0179 19.322 24.8851C19.6033 24.7405 19.8546 24.4788 19.9896 24.1936C20.1397 23.8772 20.1547 23.5217 20.0309 23.2247C19.9371 23.006 19.9784 23.0529 17.743 20.8222C16.8091 19.8885 16.0515 19.1228 16.0552 19.115C16.0627 19.1111 16.209 19.0877 16.3853 19.0603C17.1054 18.9627 17.9493 18.7595 18.4969 18.5486C18.9657 18.3689 19.3745 18.1501 19.8621 17.8141C20.4322 17.4196 20.7773 17.0914 20.9085 16.8101C21.1823 16.228 20.811 15.3491 20.1997 15.1264C19.9334 15.0326 19.5396 15.0404 19.2658 15.1537C19.1457 15.2006 18.8907 15.3452 18.7032 15.4741C16.4903 16.9937 13.5123 16.9898 11.2882 15.4702C11.1007 15.3412 10.8494 15.2006 10.7331 15.1537C10.4968 15.0639 10.1293 15.0209 9.95301 15.0717Z" fill="#667080" fill-opacity="0.9"/>
<circle cx="15" cy="15" r="14.35" stroke="#667080" stroke-opacity="0.9" stroke-width="1.3"/>
</svg>