<svg width="15" height="13" viewBox="0 0 15 13" fill="none" xmlns="http://www.w3.org/2000/svg">
<path d="M15 6.25014C15 6.4159 14.9342 6.57486 14.8169 6.69207C14.6997 6.80928 14.5408 6.87512 14.375 6.87512H2.13402L6.69246 11.4328C6.75053 11.4909 6.79659 11.5598 6.82801 11.6357C6.85944 11.7115 6.87561 11.7928 6.87561 11.875C6.87561 11.9571 6.85944 12.0384 6.82801 12.1143C6.79659 12.1901 6.75053 12.2591 6.69246 12.3171C6.63439 12.3752 6.56546 12.4213 6.48959 12.4527C6.41372 12.4841 6.33241 12.5003 6.25029 12.5003C6.16817 12.5003 6.08685 12.4841 6.01098 12.4527C5.93512 12.4213 5.86618 12.3752 5.80811 12.3171L0.183298 6.69232C0.12519 6.63427 0.0790919 6.56534 0.0476403 6.48947C0.0161886 6.4136 0 6.33228 0 6.25014C0 6.16801 0.0161886 6.08669 0.0476403 6.01081C0.0790919 5.93494 0.12519 5.86601 0.183298 5.80797L5.80811 0.183154C5.92539 0.0658824 6.08444 -1.23566e-09 6.25029 0C6.41613 1.23566e-09 6.57519 0.0658824 6.69246 0.183154C6.80973 0.300426 6.87561 0.45948 6.87561 0.625327C6.87561 0.791174 6.80973 0.950229 6.69246 1.0675L2.13402 5.62516H14.375C14.5408 5.62516 14.6997 5.69101 14.8169 5.80822C14.9342 5.92542 15 6.08439 15 6.25014Z" fill="#667080" fill-opacity="0.5"/>
</svg>
