<svg width="22" height="22" viewBox="0 0 22 22" fill="none" xmlns="http://www.w3.org/2000/svg">
  <path d="M4.4347 15.1113L4.43476 15.112C4.50199 15.8311 4.83479 16.4991 5.36809 16.9855C5.90138 17.4718 6.59677 17.7414 7.31817 17.7415H17.4615C18.1829 17.7414 18.8783 17.4718 19.4116 16.9855C19.9448 16.4991 20.2777 15.8311 20.3449 15.112L20.3449 15.1115L21.092 6.69057C21.092 6.69047 21.092 6.69038 21.092 6.69029C21.1902 5.64842 20.3701 4.7468 19.3215 4.7468H4.84061L4.6922 2.80326C4.6922 2.80325 4.6922 2.80325 4.6922 2.80324C4.65277 2.28538 4.4194 1.80152 4.0388 1.44859C3.65819 1.09565 3.15846 0.899701 2.63966 0.9C2.63964 0.9 2.63962 0.9 2.6396 0.9L1.55923 0.9C1.38435 0.9 1.21666 0.969561 1.09304 1.09334C0.969424 1.21711 0.9 1.38496 0.9 1.55994C0.9 1.73493 0.969424 1.90277 1.09304 2.02655C1.21666 2.15032 1.38435 2.21988 1.55923 2.21988L2.63966 2.21988L2.63982 2.21988C2.82621 2.21959 3.00584 2.28987 3.1427 2.41665C3.27955 2.54343 3.3635 2.71735 3.37767 2.90355L3.37767 2.90355L3.37776 2.90459L4.4347 15.1113ZM19.7789 6.57079L19.7788 6.57154L19.0318 14.9903C19.0318 14.9904 19.0317 14.9906 19.0317 14.9908C18.9947 15.3821 18.8133 15.7455 18.523 16.0101C18.2326 16.2748 17.8541 16.4215 17.4615 16.4216H7.31819C7.31819 16.4216 7.31818 16.4216 7.31817 16.4216C6.92553 16.4215 6.54701 16.2748 6.25661 16.0101C5.96626 15.7455 5.78486 15.3819 5.74789 14.9905C5.74789 14.9904 5.74788 14.9904 5.74787 14.9903L4.95012 6.06668H19.3215H19.3215C19.3856 6.06664 19.4489 6.08001 19.5075 6.10594C19.566 6.13187 19.6185 6.16978 19.6616 6.21725C19.7047 6.26472 19.7374 6.32069 19.7576 6.38158C19.7778 6.44247 19.7851 6.50692 19.7789 6.57079ZM16.8232 20.7427C17.0517 20.5139 17.1801 20.2036 17.1801 19.8801C17.1801 19.5566 17.0517 19.2464 16.8232 19.0176C16.5947 18.7888 16.2848 18.6602 15.9616 18.6602C15.6384 18.6602 15.3285 18.7888 15.1 19.0176C14.8715 19.2464 14.7432 19.5566 14.7432 19.8801C14.7432 20.2036 14.8715 20.5139 15.1 20.7427C15.3285 20.9714 15.6384 21.1 15.9616 21.1C16.2848 21.1 16.5947 20.9714 16.8232 20.7427ZM9.56557 20.7427C9.79406 20.5139 9.9224 20.2036 9.9224 19.8801C9.9224 19.5566 9.79406 19.2464 9.56557 19.0176C9.33707 18.7888 9.02714 18.6602 8.70394 18.6602C8.38074 18.6602 8.07081 18.7888 7.84232 19.0176C7.61382 19.2464 7.48548 19.5566 7.48548 19.8801C7.48548 20.2036 7.61382 20.5139 7.84232 20.7427C8.07081 20.9714 8.38074 21.1 8.70394 21.1C9.02714 21.1 9.33707 20.9714 9.56557 20.7427Z" fill="#667080" stroke="#667080" stroke-width="0.2"/>
</svg>
