
<svg width="15" height="16" viewBox="0 0 15 16" fill="none" xmlns="http://www.w3.org/2000/svg">
<path d="M7.61858 9.32153L7.51251 9.21547L7.40645 9.32153L1.64497 15.083L1.64496 15.083L1.64315 15.0849C1.56303 15.1678 1.4672 15.234 1.36125 15.2795C1.25529 15.325 1.14133 15.349 1.02601 15.35C0.910701 15.351 0.796342 15.329 0.689609 15.2853C0.582877 15.2417 0.485911 15.1772 0.404368 15.0956L0.298841 15.2012L0.404368 15.0956C0.322826 15.0141 0.258339 14.9171 0.214672 14.8104C0.171004 14.7037 0.149031 14.5893 0.150033 14.474C0.151035 14.3587 0.174993 14.2447 0.220508 14.1388C0.266024 14.0328 0.332186 13.937 0.415133 13.8569L0.415148 13.8569L0.416992 13.855L6.17847 8.09355L6.28452 7.98749L6.17848 7.88143L0.419747 2.12168C0.266323 1.95745 0.182519 1.74011 0.18601 1.51533C0.189513 1.2898 0.280621 1.07448 0.440057 0.914936C0.599493 0.755387 0.814747 0.664127 1.04027 0.660464C1.26503 0.656815 1.48241 0.740451 1.64675 0.893733L7.40645 6.65344L7.51251 6.7595L7.61858 6.65344L13.3791 0.892934C13.5428 0.735275 13.7618 0.648058 13.9891 0.650033C14.2168 0.652012 14.4346 0.743348 14.5956 0.904369C14.7567 1.06539 14.848 1.28321 14.85 1.51092C14.8519 1.73821 14.7647 1.95721 14.6071 2.1209L8.84656 7.88142L8.7405 7.98748L8.84656 8.09355L14.6071 13.8541C14.7647 14.0178 14.8519 14.2367 14.85 14.464C14.848 14.6918 14.7567 14.9096 14.5956 15.0706C14.4346 15.2316 14.2168 15.323 13.9891 15.3249C13.7618 15.3269 13.5428 15.2397 13.3791 15.082L7.61858 9.32153Z" fill="#31363F" fill-opacity="0.3" stroke="white" stroke-width="0.3"/>
</svg>