<svg width="24" height="24" viewBox="0 0 24 24" fill="none" xmlns="http://www.w3.org/2000/svg">
<g clip-path="url(#clip0_1_6636)">
<path d="M12.0352 13.3785L11.9998 13.3432L11.9645 13.3785L6.30746 19.0355L6.30686 19.0362C6.21922 19.1269 6.1144 19.1993 5.99849 19.2491C5.88259 19.2989 5.75793 19.3251 5.63179 19.3262C5.50565 19.3273 5.38055 19.3032 5.2638 19.2554C5.14705 19.2077 5.04098 19.1371 4.95178 19.0479C4.86259 18.9587 4.79204 18.8527 4.74428 18.7359C4.69651 18.6192 4.67247 18.4941 4.67357 18.3679C4.67467 18.2418 4.70087 18.1171 4.75066 18.0012C4.80045 17.8853 4.87282 17.7805 4.96356 17.6929L4.96356 17.6929L4.96418 17.6923L10.6212 12.0353L10.6565 11.9999L10.6212 11.9646L4.96574 6.30811C4.79718 6.12832 4.70508 5.89005 4.7089 5.6436C4.71274 5.3969 4.8124 5.16137 4.9868 4.98684C5.1612 4.81231 5.39667 4.71249 5.64337 4.70848C5.8898 4.70448 6.12813 4.79641 6.30804 4.96484L11.9645 10.6213L11.9998 10.6566L12.0352 10.6213L17.6916 4.96487C17.6917 4.96477 17.6918 4.96467 17.6919 4.96457C17.871 4.79171 18.1108 4.69607 18.3598 4.69823C18.6089 4.70039 18.8471 4.8003 19.0233 4.97644C19.1994 5.15258 19.2993 5.39085 19.3015 5.63994C19.3037 5.88888 19.208 6.12871 19.0352 6.30785C19.0351 6.30795 19.035 6.30806 19.0349 6.30817L13.3785 11.9645L13.3431 11.9999L13.3785 12.0353L19.0349 17.6916C19.035 17.6918 19.0351 17.6919 19.0352 17.692C19.208 17.8711 19.3037 18.1109 19.3015 18.3599C19.2993 18.609 19.1994 18.8472 19.0233 19.0234C18.8471 19.1995 18.6089 19.2994 18.3598 19.3016C18.1109 19.3037 17.871 19.2081 17.6919 19.0353C17.6918 19.0352 17.6917 19.035 17.6916 19.0349L12.0352 13.3785Z" fill="#667080" stroke="white" stroke-width="0.1"/>
</g>
<defs>
<clipPath id="clip0_1_6636">
<rect width="24" height="24" fill="white"/>
</clipPath>
</defs>
</svg>