<svg width="18" height="18" viewBox="0 0 18 18" fill="none" xmlns="http://www.w3.org/2000/svg">
<g clip-path="url(#clip0_1_2485)">
<path d="M11.731 7.22189L11.7314 7.2215C11.8162 7.13551 11.9173 7.06722 12.0287 7.02061C12.1401 6.974 12.2597 6.95 12.3804 6.95C12.5012 6.95 12.6208 6.974 12.7322 7.02061C12.8436 7.06722 12.9447 7.13551 13.0295 7.2215L13.0296 7.22167C13.2029 7.39693 13.3 7.63341 13.3 7.87983C13.3 8.1262 13.2029 8.36263 13.0297 8.53788C13.0297 8.53791 13.0297 8.53795 13.0296 8.53798L9.72238 11.8722L9.72235 11.8723C9.62695 11.9685 9.51343 12.0448 9.38836 12.097C9.26328 12.1491 9.12912 12.1759 8.99362 12.1759C8.85812 12.1759 8.72396 12.1491 8.59889 12.097C8.47381 12.0448 8.3603 11.9685 8.26489 11.8723L4.969 8.54825C4.9689 8.54814 4.9688 8.54804 4.9687 8.54794C4.86173 8.43941 4.78287 8.3064 4.73897 8.16047C4.69502 8.01441 4.68743 7.85981 4.71685 7.71014C4.74627 7.56047 4.81182 7.42026 4.90779 7.30169C5.00358 7.18334 5.1268 7.09014 5.26675 7.03017C5.43443 6.96019 5.6192 6.94192 5.79735 6.97772C5.97574 7.01356 6.13933 7.10198 6.26704 7.23158L6.26743 7.23198L8.85156 9.83973L8.99359 9.98306L9.13565 9.83976L11.731 7.22189Z" fill="#667080" stroke="white" stroke-width="0.4"/>
</g>
<defs>
<clipPath id="clip0_1_2485">
<rect width="18" height="18" fill="white" transform="matrix(0 1 -1 0 18 0)"/>
</clipPath>
</defs>
</svg>