<svg width="22" height="20" viewBox="0 0 22 20" fill="none" xmlns="http://www.w3.org/2000/svg">
<path d="M15.9107 0C13.8826 0 12.1069 0.925218 11 2.48913C9.89312 0.925218 8.11741 0 6.08929 0C4.47487 0.00193039 2.92709 0.683141 1.78552 1.89418C0.643952 3.10522 0.00181965 4.74719 0 6.45986C0 13.7532 10.1937 19.6567 10.6278 19.9005C10.7422 19.9658 10.8701 20 11 20C11.1299 20 11.2578 19.9658 11.3722 19.9005C11.8063 19.6567 22 13.7532 22 6.45986C21.9982 4.74719 21.356 3.10522 20.2145 1.89418C19.0729 0.683141 17.5251 0.00193039 15.9107 0ZM11 18.2126C9.20661 17.104 1.57143 12.0539 1.57143 6.45986C1.57299 5.18924 2.04948 3.97113 2.8964 3.07266C3.74333 2.1742 4.89155 1.66871 6.08929 1.66706C7.99955 1.66706 9.60339 2.74648 10.2732 4.48022C10.3324 4.6331 10.4331 4.76386 10.5625 4.85588C10.6919 4.94791 10.8442 4.99704 11 4.99704C11.1558 4.99704 11.3081 4.94791 11.4375 4.85588C11.5669 4.76386 11.6676 4.6331 11.7268 4.48022C12.3966 2.74336 14.0004 1.66706 15.9107 1.66706C17.1084 1.66871 18.2567 2.1742 19.1036 3.07266C19.9505 3.97113 20.427 5.18924 20.4286 6.45986C20.4286 12.0455 12.7914 17.103 11 18.2126Z" fill="#667080"/>
</svg>