
<svg width="18" height="18" viewBox="0 0 18 18" fill="none" xmlns="http://www.w3.org/2000/svg">
<path fill-rule="evenodd" clip-rule="evenodd" d="M7.85583 1.5H15.9987C16.551 1.5 16.9987 1.94772 16.9987 2.5V15.5C16.9987 16.0523 16.551 16.5 15.9987 16.5H7.85584C7.30355 16.5 6.85583 16.0523 6.85583 15.5V11.8327H5.85583V15.5C5.85583 16.6046 6.75127 17.5 7.85584 17.5H15.9987C17.1033 17.5 17.9987 16.6046 17.9987 15.5V2.5C17.9987 1.39543 17.1033 0.5 15.9987 0.5H7.85583C6.75127 0.5 5.85583 1.39543 5.85583 2.5V6.16602H6.85583V2.5C6.85583 1.94772 7.30355 1.5 7.85583 1.5Z" fill="#667080" fill-opacity="0.6"/>
<path d="M0.64644 8.2402C0.451178 8.43546 0.451178 8.75204 0.64644 8.9473L3.82842 12.1293C4.02368 12.3245 4.34027 12.3245 4.53553 12.1293C4.73079 11.934 4.73079 11.6174 4.53553 11.4222L1.7071 8.59375L4.53553 5.76532C4.73079 5.57006 4.73079 5.25348 4.53553 5.05822C4.34027 4.86295 4.02368 4.86295 3.82842 5.05822L0.64644 8.2402ZM11.5238 8.09375L0.999993 8.09375V9.09375L11.5238 9.09375V8.09375Z" fill="#667080" fill-opacity="0.6"/>
</svg>