<svg width="131" height="25" viewBox="0 0 131 25" fill="none" xmlns="http://www.w3.org/2000/svg">
  <path d="M0.785156 24V19.9219L1.46484 19.8633C2.33984 19.793 3.04688 19.4609 3.58594 18.8672C4.125 18.2656 4.52734 17.3086 4.79297 15.9961C5.06641 14.6758 5.24219 12.9023 5.32031 10.6758L5.71875 -7.15256e-07H22.0078V24H17.0742V4.06641H10.4297L10.0547 12.4219C9.92969 15.1094 9.60938 17.3047 9.09375 19.0078C8.58594 20.7109 7.77344 21.9687 6.65625 22.7812C5.54687 23.5937 4.02734 24 2.09766 24H0.785156ZM33.5705 24.3516C31.7502 24.3516 30.1759 23.9648 28.8478 23.1914C27.5275 22.4102 26.508 21.3242 25.7892 19.9336C25.0705 18.5352 24.7111 16.9141 24.7111 15.0703C24.7111 13.2109 25.0705 11.5859 25.7892 10.1953C26.508 8.79687 27.5275 7.71094 28.8478 6.9375C30.1759 6.15625 31.7502 5.76563 33.5705 5.76563C35.3908 5.76563 36.9611 6.15625 38.2814 6.9375C39.6095 7.71094 40.633 8.79687 41.3517 10.1953C42.0705 11.5859 42.4298 13.2109 42.4298 15.0703C42.4298 16.9141 42.0705 18.5352 41.3517 19.9336C40.633 21.3242 39.6095 22.4102 38.2814 23.1914C36.9611 23.9648 35.3908 24.3516 33.5705 24.3516ZM33.5939 20.4844C34.422 20.4844 35.1134 20.25 35.6681 19.7813C36.2228 19.3047 36.6408 18.6562 36.922 17.8359C37.2111 17.0156 37.3556 16.082 37.3556 15.0352C37.3556 13.9883 37.2111 13.0547 36.922 12.2344C36.6408 11.4141 36.2228 10.7656 35.6681 10.2891C35.1134 9.8125 34.422 9.57422 33.5939 9.57422C32.758 9.57422 32.0548 9.8125 31.4845 10.2891C30.922 10.7656 30.4963 11.4141 30.2072 12.2344C29.9259 13.0547 29.7853 13.9883 29.7853 15.0352C29.7853 16.082 29.9259 17.0156 30.2072 17.8359C30.4963 18.6562 30.922 19.3047 31.4845 19.7813C32.0548 20.25 32.758 20.4844 33.5939 20.4844ZM57.3441 6V9.92578H49.8675V24H45.0159V6H57.3441ZM67.2163 24.3516C65.396 24.3516 63.8218 23.9648 62.4936 23.1914C61.1733 22.4102 60.1538 21.3242 59.435 19.9336C58.7163 18.5352 58.3569 16.9141 58.3569 15.0703C58.3569 13.2109 58.7163 11.5859 59.435 10.1953C60.1538 8.79687 61.1733 7.71094 62.4936 6.9375C63.8218 6.15625 65.396 5.76563 67.2163 5.76563C69.0366 5.76563 70.6069 6.15625 71.9272 6.9375C73.2554 7.71094 74.2788 8.79687 74.9975 10.1953C75.7163 11.5859 76.0757 13.2109 76.0757 15.0703C76.0757 16.9141 75.7163 18.5352 74.9975 19.9336C74.2788 21.3242 73.2554 22.4102 71.9272 23.1914C70.6069 23.9648 69.0366 24.3516 67.2163 24.3516ZM67.2397 20.4844C68.0679 20.4844 68.7593 20.25 69.3139 19.7813C69.8686 19.3047 70.2866 18.6562 70.5679 17.8359C70.8569 17.0156 71.0014 16.082 71.0014 15.0352C71.0014 13.9883 70.8569 13.0547 70.5679 12.2344C70.2866 11.4141 69.8686 10.7656 69.3139 10.2891C68.7593 9.8125 68.0679 9.57422 67.2397 9.57422C66.4038 9.57422 65.7007 9.8125 65.1304 10.2891C64.5679 10.7656 64.1421 11.4141 63.853 12.2344C63.5718 13.0547 63.4311 13.9883 63.4311 15.0352C63.4311 16.082 63.5718 17.0156 63.853 17.8359C64.1421 18.6562 64.5679 19.3047 65.1304 19.7813C65.7007 20.25 66.4038 20.4844 67.2397 20.4844ZM76.9186 9.92578V6H93.2311V9.92578H87.4303V24H82.6725V9.92578H76.9186ZM100.367 17.4141L106.847 6H111.769V24H107.012V12.5508L100.554 24H95.5975V6H100.367V17.4141ZM115.111 24V6H130.85V24H126.08V9.92578H119.822V24H115.111Z" fill="#31363F"/>
</svg>