<svg width="16" height="16" viewBox="0 0 16 16" fill="none" xmlns="http://www.w3.org/2000/svg">
<path d="M9.71055 4.98555L9.71058 4.98558C10.1879 5.40325 10.4497 5.96322 10.4482 6.56188V6.56201C10.4482 7.44203 9.86798 8.23749 8.96305 8.58566L8.96299 8.58568C8.81212 8.64394 8.6823 8.74632 8.59047 8.87946C8.49863 9.0126 8.44906 9.17032 8.44819 9.33206V9.33232V9.68701C8.44819 9.72815 8.41433 9.76201 8.37319 9.76201H7.62319C7.58206 9.76201 7.54819 9.72815 7.54819 9.68701V9.35107C7.54819 8.99985 7.6516 8.6536 7.85027 8.36544C8.04615 8.08303 8.31932 7.86758 8.64104 7.74466L8.64112 7.74462C9.18892 7.53418 9.54976 7.07293 9.54976 6.56201C9.54976 5.83718 8.845 5.26201 7.99976 5.26201C7.15451 5.26201 6.44976 5.83718 6.44976 6.56201V6.68076C6.44976 6.7219 6.41589 6.75576 6.37476 6.75576H5.62476C5.58362 6.75576 5.54976 6.7219 5.54976 6.68076V6.56201C5.54976 5.96326 5.81159 5.40327 6.2889 4.98561C6.74806 4.5846 7.35496 4.36201 7.99976 4.36201C8.64463 4.36201 9.25147 4.58309 9.71055 4.98555ZM1.05 8C1.05 4.16199 4.16199 1.05 8 1.05C11.838 1.05 14.95 4.16199 14.95 8C14.95 11.838 11.838 14.95 8 14.95C4.16199 14.95 1.05 11.838 1.05 8ZM2.1375 8C2.1375 11.237 4.76301 13.8625 8 13.8625C11.237 13.8625 13.8625 11.237 13.8625 8C13.8625 4.76301 11.237 2.1375 8 2.1375C4.76301 2.1375 2.1375 4.76301 2.1375 8ZM7.59317 11.8436C7.48534 11.7358 7.42476 11.5895 7.42476 11.437C7.42476 11.2845 7.48534 11.1383 7.59317 11.0304C7.701 10.9226 7.84726 10.862 7.99976 10.862C8.15226 10.862 8.29851 10.9226 8.40634 11.0304C8.51418 11.1383 8.57476 11.2845 8.57476 11.437C8.57476 11.5895 8.51418 11.7358 8.40634 11.8436C8.29851 11.9514 8.15226 12.012 7.99976 12.012C7.84726 12.012 7.701 11.9514 7.59317 11.8436Z" fill="#949BA6" fill-opacity="0.7" stroke="white" stroke-width="0.1"/>
</svg>
