<svg width="20" height="20" viewBox="0 0 20 20" fill="none" xmlns="http://www.w3.org/2000/svg">
  <path fill-rule="evenodd" clip-rule="evenodd" d="M2.41602 9.16797C2.41602 5.44005 5.43809 2.41797 9.16602 2.41797C12.8939 2.41797 15.916 5.44005 15.916 9.16797C15.916 12.8959 12.8939 15.918 9.16602 15.918C5.43809 15.918 2.41602 12.8959 2.41602 9.16797ZM9.16602 0.917969C4.60967 0.917969 0.916016 4.61162 0.916016 9.16797C0.916016 13.7243 4.60967 17.418 9.16602 17.418C11.1736 17.418 13.0138 16.7009 14.4442 15.5088L17.385 18.4496C17.6779 18.7425 18.1528 18.7425 18.4457 18.4496C18.7386 18.1567 18.7386 17.6818 18.4457 17.3889L15.5051 14.4483C16.6982 13.0176 17.416 11.1766 17.416 9.16797C17.416 4.61162 13.7224 0.917969 9.16602 0.917969Z" fill="#667080"/>
</svg>
