<svg width="30" height="30" viewBox="0 0 30 30" fill="none" xmlns="http://www.w3.org/2000/svg">
  <circle cx="15" cy="15" r="14.35" stroke="#667080" stroke-opacity="0.9" stroke-width="1.3"/>
  <path fill-rule="evenodd" clip-rule="evenodd" d="M24.5413 9.81257C24.6796 9.34457 24.5413 9 23.8788 9H21.6913C21.1347 9 20.878 9.29743 20.7388 9.62571C20.7388 9.62571 19.6264 12.3651 18.0506 14.1446C17.5406 14.6606 17.3089 14.8243 17.0306 14.8243C16.8914 14.8243 16.6823 14.6606 16.6823 14.1917V9.81257C16.6823 9.25029 16.5289 9 16.0656 9H12.6257C12.2782 9 12.069 9.26057 12.069 9.50829C12.069 10.0406 12.8573 10.164 12.9382 11.6623V14.9177C12.9382 15.6317 12.8107 15.7611 12.5323 15.7611C11.7907 15.7611 9.98656 13.0089 8.91575 9.85971C8.70826 9.24686 8.49826 9 7.93911 9H5.74998C5.125 9 5 9.29743 5 9.62571C5 10.2103 5.74165 13.1143 8.45409 16.9551C10.2624 19.578 12.8082 21 15.1273 21C16.5181 21 16.6898 20.6846 16.6898 20.1403V18.1577C16.6898 17.526 16.8214 17.4 17.2622 17.4C17.5872 17.4 18.1431 17.5646 19.4414 18.8289C20.9247 20.328 21.1688 21 22.0038 21H24.1913C24.8163 21 25.1296 20.6846 24.9496 20.0606C24.7513 19.44 24.0429 18.5391 23.1038 17.4703C22.5938 16.8617 21.8288 16.206 21.5963 15.8777C21.2722 15.4569 21.3647 15.2691 21.5963 14.8946C21.5963 14.8946 24.2629 11.1009 24.5404 9.81257H24.5413Z" fill="#667080" fill-opacity="0.9"/>
</svg>
